<?xml version="1.0" encoding="UTF-8"?>
<svg xmlns="http://www.w3.org/2000/svg" xmlns:xlink="http://www.w3.org/1999/xlink" fill-opacity="1" color-rendering="auto" color-interpolation="auto" stroke="black" text-rendering="auto" stroke-linecap="square" width="932" stroke-miterlimit="10" stroke-opacity="1" shape-rendering="auto" fill="black" stroke-dasharray="none" font-weight="normal" stroke-width="1" height="429" font-family="'Dialog'" font-style="normal" stroke-linejoin="miter" font-size="12" stroke-dashoffset="0" image-rendering="auto">
  <!--Generated by ySVG-->
  <defs id="genericDefs"/>
  <g>
    <defs id="defs1">
      <clipPath clipPathUnits="userSpaceOnUse" id="clipPath1">
        <path d="M0 0 L932 0 L932 429 L0 429 L0 0 Z"/>
      </clipPath>
      <clipPath clipPathUnits="userSpaceOnUse" id="clipPath2">
        <path d="M136 176 L1068 176 L1068 605 L136 605 L136 176 Z"/>
      </clipPath>
    </defs>
    <g fill="white" transform="translate(-136,-176)" stroke="white">
      <rect x="136" width="932" height="429" y="176" clip-path="url(#clipPath2)" stroke="none"/>
    </g>
    <g fill="white" transform="matrix(1,0,0,1,-136,-176)" stroke="white">
      <rect x="435" width="396" height="326" y="191" clip-path="url(#clipPath2)" stroke="none"/>
    </g>
    <g stroke-miterlimit="1.45" font-family="sans-serif" transform="matrix(1,0,0,1,-136,-176)" stroke-linecap="butt">
      <text x="441" xml:space="preserve" y="209.0645" clip-path="url(#clipPath2)" stroke="none">Continuous Integration Tool</text>
      <rect fill="none" x="435" width="396" height="326" y="191" clip-path="url(#clipPath2)"/>
    </g>
    <g fill="rgb(255,204,0)" transform="matrix(1,0,0,1,-136,-176)" stroke="rgb(255,204,0)">
      <rect x="151" y="226" clip-path="url(#clipPath2)" width="90" rx="4" ry="4" height="43" stroke="none"/>
    </g>
    <g stroke-miterlimit="1.45" font-family="sans-serif" transform="matrix(1,0,0,1,-136,-176)" stroke-linecap="butt">
      <text x="181.6562" xml:space="preserve" y="252.2139" clip-path="url(#clipPath2)" stroke="none">Code</text>
      <rect x="151" y="226" clip-path="url(#clipPath2)" fill="none" width="90" rx="4" ry="4" height="43"/>
    </g>
    <g fill="rgb(255,204,0)" transform="matrix(1,0,0,1,-136,-176)" stroke="rgb(255,204,0)">
      <rect x="305" y="226" clip-path="url(#clipPath2)" width="90" rx="4" ry="4" height="43" stroke="none"/>
    </g>
    <g stroke-miterlimit="1.45" font-family="sans-serif" transform="matrix(1,0,0,1,-136,-176)" stroke-linecap="butt">
      <text x="309.9805" xml:space="preserve" y="252.2139" clip-path="url(#clipPath2)" stroke="none">Source Control</text>
      <rect x="305" y="226" clip-path="url(#clipPath2)" fill="none" width="90" rx="4" ry="4" height="43"/>
    </g>
    <g fill="rgb(255,204,0)" transform="matrix(1,0,0,1,-136,-176)" stroke="rgb(255,204,0)">
      <rect x="459" y="226" clip-path="url(#clipPath2)" width="90" rx="4" ry="4" height="43" stroke="none"/>
    </g>
    <g stroke-miterlimit="1.45" font-family="sans-serif" transform="matrix(1,0,0,1,-136,-176)" stroke-linecap="butt">
      <text x="490.6582" xml:space="preserve" y="252.2139" clip-path="url(#clipPath2)" stroke="none">Build</text>
      <rect x="459" y="226" clip-path="url(#clipPath2)" fill="none" width="90" rx="4" ry="4" height="43"/>
    </g>
    <g fill="rgb(255,204,0)" transform="matrix(1,0,0,1,-136,-176)" stroke="rgb(255,204,0)">
      <rect x="459" y="299" clip-path="url(#clipPath2)" width="90" rx="4" ry="4" height="43" stroke="none"/>
    </g>
    <g stroke-miterlimit="1.45" font-family="sans-serif" transform="matrix(1,0,0,1,-136,-176)" stroke-linecap="butt">
      <text x="479.9941" xml:space="preserve" y="325.2139" clip-path="url(#clipPath2)" stroke="none">Unit Test</text>
      <rect x="459" y="299" clip-path="url(#clipPath2)" fill="none" width="90" rx="4" ry="4" height="43"/>
    </g>
    <g fill="rgb(255,204,0)" transform="matrix(1,0,0,1,-136,-176)" stroke="rgb(255,204,0)">
      <rect x="579" y="299" clip-path="url(#clipPath2)" width="90" rx="4" ry="4" height="43" stroke="none"/>
    </g>
    <g stroke-miterlimit="1.45" font-family="sans-serif" transform="matrix(1,0,0,1,-136,-176)" stroke-linecap="butt">
      <text x="582.3105" xml:space="preserve" y="325.2139" clip-path="url(#clipPath2)" stroke="none">Integration Test</text>
      <rect x="579" y="299" clip-path="url(#clipPath2)" fill="none" width="90" rx="4" ry="4" height="43"/>
    </g>
    <g fill="rgb(255,204,0)" transform="matrix(1,0,0,1,-136,-176)" stroke="rgb(255,204,0)">
      <rect x="699" y="299" clip-path="url(#clipPath2)" width="90" rx="4" ry="4" height="43" stroke="none"/>
    </g>
    <g stroke-miterlimit="1.45" font-family="sans-serif" transform="matrix(1,0,0,1,-136,-176)" stroke-linecap="butt">
      <text x="712.6582" xml:space="preserve" y="325.2139" clip-path="url(#clipPath2)" stroke="none">Other Tests</text>
      <rect x="699" y="299" clip-path="url(#clipPath2)" fill="none" width="90" rx="4" ry="4" height="43"/>
    </g>
    <g fill="rgb(255,204,0)" transform="matrix(1,0,0,1,-136,-176)" stroke="rgb(255,204,0)">
      <rect x="699" y="372" clip-path="url(#clipPath2)" width="90" rx="4" ry="4" height="43" stroke="none"/>
    </g>
    <g stroke-miterlimit="1.45" font-family="sans-serif" transform="matrix(1,0,0,1,-136,-176)" stroke-linecap="butt">
      <text x="705.6416" xml:space="preserve" y="398.2139" clip-path="url(#clipPath2)" stroke="none">Build Package</text>
      <rect x="699" y="372" clip-path="url(#clipPath2)" fill="none" width="90" rx="4" ry="4" height="43"/>
    </g>
    <g fill="rgb(255,204,0)" transform="matrix(1,0,0,1,-136,-176)" stroke="rgb(255,204,0)">
      <rect x="699" y="445" clip-path="url(#clipPath2)" width="90" rx="4" ry="4" height="43" stroke="none"/>
    </g>
    <g stroke-miterlimit="1.45" font-family="sans-serif" transform="matrix(1,0,0,1,-136,-176)" stroke-linecap="butt">
      <text x="702.3047" xml:space="preserve" y="471.2139" clip-path="url(#clipPath2)" stroke="none">Upload to Repo</text>
      <rect x="699" y="445" clip-path="url(#clipPath2)" fill="none" width="90" rx="4" ry="4" height="43"/>
    </g>
    <g fill="rgb(255,204,0)" transform="matrix(1,0,0,1,-136,-176)" stroke="rgb(255,204,0)">
      <rect x="699" y="547" clip-path="url(#clipPath2)" width="90" rx="4" ry="4" height="43" stroke="none"/>
    </g>
    <g stroke-miterlimit="1.45" font-family="sans-serif" transform="matrix(1,0,0,1,-136,-176)" stroke-linecap="butt">
      <text x="709.3213" xml:space="preserve" y="573.2139" clip-path="url(#clipPath2)" stroke="none">Deploy script</text>
      <rect x="699" y="547" clip-path="url(#clipPath2)" fill="none" width="90" rx="4" ry="4" height="43"/>
    </g>
    <g fill="rgb(255,204,0)" transform="matrix(1,0,0,1,-136,-176)" stroke="rgb(255,204,0)">
      <rect x="831" y="547" clip-path="url(#clipPath2)" width="90" rx="4" ry="4" height="43" stroke="none"/>
    </g>
    <g stroke-miterlimit="1.45" font-family="sans-serif" transform="matrix(1,0,0,1,-136,-176)" stroke-linecap="butt">
      <text x="843.9902" xml:space="preserve" y="573.2139" clip-path="url(#clipPath2)" stroke="none">Smoke Test</text>
      <rect x="831" y="547" clip-path="url(#clipPath2)" fill="none" width="90" rx="4" ry="4" height="43"/>
    </g>
    <g fill="rgb(255,204,0)" transform="matrix(1,0,0,1,-136,-176)" stroke="rgb(255,204,0)">
      <rect x="963" y="547" clip-path="url(#clipPath2)" width="90" rx="4" ry="4" height="43" stroke="none"/>
    </g>
    <g stroke-miterlimit="1.45" font-family="sans-serif" transform="matrix(1,0,0,1,-136,-176)" stroke-linecap="butt">
      <text x="987.9932" xml:space="preserve" y="573.2139" clip-path="url(#clipPath2)" stroke="none">Monitor</text>
      <rect x="963" y="547" clip-path="url(#clipPath2)" fill="none" width="90" rx="4" ry="4" height="43"/>
    </g>
    <g fill="rgb(255,204,0)" transform="matrix(1,0,0,1,-136,-176)" stroke="rgb(255,204,0)">
      <rect x="579" y="547" clip-path="url(#clipPath2)" width="90" rx="4" ry="4" height="43" stroke="none"/>
    </g>
    <g stroke-miterlimit="1.45" font-family="sans-serif" transform="matrix(1,0,0,1,-136,-176)" stroke-linecap="butt">
      <text x="588.3105" xml:space="preserve" y="573.2139" clip-path="url(#clipPath2)" stroke="none">Configuration</text>
      <rect x="579" y="547" clip-path="url(#clipPath2)" fill="none" width="90" rx="4" ry="4" height="43"/>
      <path fill="none" d="M241.0044 247.5 L297.002 247.5" clip-path="url(#clipPath2)"/>
      <path d="M305.002 247.5 L293.002 242.5 L296.002 247.5 L293.002 252.5 Z" clip-path="url(#clipPath2)" stroke="none"/>
      <path fill="none" d="M395.0044 247.5 L451.002 247.5" clip-path="url(#clipPath2)"/>
      <path d="M459.002 247.5 L447.002 242.5 L450.002 247.5 L447.002 252.5 Z" clip-path="url(#clipPath2)" stroke="none"/>
      <path fill="none" d="M504 268.9937 L504 290.9971" clip-path="url(#clipPath2)"/>
      <path d="M504 298.9971 L509 286.9971 L504 289.9971 L499 286.9971 Z" clip-path="url(#clipPath2)" stroke="none"/>
      <path fill="none" d="M548.9707 320.5 L570.9751 320.5" clip-path="url(#clipPath2)"/>
      <path d="M578.9751 320.5 L566.9751 315.5 L569.9751 320.5 L566.9751 325.5 Z" clip-path="url(#clipPath2)" stroke="none"/>
      <path fill="none" d="M668.9707 320.5 L690.9751 320.5" clip-path="url(#clipPath2)"/>
      <path d="M698.9751 320.5 L686.9751 315.5 L689.9751 320.5 L686.9751 325.5 Z" clip-path="url(#clipPath2)" stroke="none"/>
      <path fill="none" d="M744 341.9937 L744 363.9971" clip-path="url(#clipPath2)"/>
      <path d="M744 371.9971 L749 359.9971 L744 362.9971 L739 359.9971 Z" clip-path="url(#clipPath2)" stroke="none"/>
      <path fill="none" d="M744 414.9937 L744 436.9971" clip-path="url(#clipPath2)"/>
      <path d="M744 444.9971 L749 432.9971 L744 435.9971 L739 432.9971 Z" clip-path="url(#clipPath2)" stroke="none"/>
      <path fill="none" d="M744 487.9658 L744 538.9901" clip-path="url(#clipPath2)"/>
      <path d="M744 546.9901 L749 534.9901 L744 537.9901 L739 534.9901 Z" clip-path="url(#clipPath2)" stroke="none"/>
      <path fill="none" d="M789.0205 568.5 L823.0238 568.5" clip-path="url(#clipPath2)"/>
      <path d="M831.0238 568.5 L819.0238 563.5 L822.0238 568.5 L819.0238 573.5 Z" clip-path="url(#clipPath2)" stroke="none"/>
      <path fill="none" d="M921.0205 568.5 L955.0238 568.5" clip-path="url(#clipPath2)"/>
      <path d="M963.0238 568.5 L951.0238 563.5 L954.0238 568.5 L951.0238 573.5 Z" clip-path="url(#clipPath2)" stroke="none"/>
      <path fill="none" d="M668.9707 568.5 L690.9751 568.5" clip-path="url(#clipPath2)"/>
      <path d="M698.9751 568.5 L686.9751 563.5 L689.9751 568.5 L686.9751 573.5 Z" clip-path="url(#clipPath2)" stroke="none"/>
    </g>
  </g>
</svg>
